<svg xmlns="http://www.w3.org/2000/svg" viewBox="0 0 1200 750" width="1200" height="750"
     role="img" aria-label="Toyota Camry Hybrid plan view illustration">
  <title>Toyota Camry Hybrid - plan view</title>
  <defs>
    <linearGradient id="body-toyota-camry-hybrid-3" x1="0" y1="0" x2="0.25" y2="1">
      <stop offset="0" stop-color="#FFFFFF"/>
      <stop offset="0.45" stop-color="#E8ECF1"/>
      <stop offset="1" stop-color="#AEB8C4"/>
    </linearGradient>
    <linearGradient id="glass-toyota-camry-hybrid-3" x1="0.1" y1="0" x2="0.7" y2="1">
      <stop offset="0" stop-color="#243044" stop-opacity="0.95"/>
      <stop offset="0.55" stop-color="#243044"/>
      <stop offset="1" stop-color="#FFFFFF" stop-opacity="0.35"/>
    </linearGradient>
    <linearGradient id="rim-toyota-camry-hybrid-3" x1="0" y1="0" x2="1" y2="1">
      <stop offset="0" stop-color="#D9DEE6"/>
      <stop offset="0.6" stop-color="#8E97A3"/>
      <stop offset="1" stop-color="#4C545F"/>
    </linearGradient>
    <radialGradient id="bg-toyota-camry-hybrid-3" cx="0.5" cy="0.34" r="0.78">
      <stop offset="0" stop-color="#0C1218"/>
      <stop offset="0.55" stop-color="#080B0F"/>
      <stop offset="1" stop-color="#05070A"/>
    </radialGradient>
    <radialGradient id="glow-toyota-camry-hybrid-3" cx="0.5" cy="0.5" r="0.5">
      <stop offset="0" stop-color="#7FD1E0" stop-opacity="0.55"/>
      <stop offset="1" stop-color="#7FD1E0" stop-opacity="0"/>
    </radialGradient>
    <filter id="soft-toyota-camry-hybrid-3" x="-20%" y="-20%" width="140%" height="140%">
      <feGaussianBlur stdDeviation="18"/>
    </filter>
  </defs>
  <rect width="1200" height="750" fill="url(#bg-toyota-camry-hybrid-3)"/>
  <ellipse cx="600" cy="330" rx="560" ry="260" fill="url(#glow-toyota-camry-hybrid-3)" opacity="0.5"/>
  <path d="M0 560h1200" stroke="#FFFFFF" stroke-opacity="0.07"/>
  <rect y="560" width="1200" height="190" fill="#FFFFFF" fill-opacity="0.015"/>
  <g stroke="#FFFFFF" stroke-opacity="0.035">
    <path d="M0 612h1200M0 664h1200M0 716h1200"/>
    <path d="M180 560v190M420 560v190M660 560v190M900 560v190"/>
  </g>
  <ellipse cx="600" cy="566" rx="430" ry="26" fill="#000000" opacity="0.55" filter="url(#soft-toyota-camry-hybrid-3)"/>
  <g>
    <rect x="330.0" y="320.0" width="68" height="132" rx="22" fill="#0B0E12"/>
    <rect x="802.0" y="320.0" width="68" height="132" rx="22" fill="#0B0E12"/>
    <rect x="330.0" y="590.4" width="68" height="132" rx="22" fill="#0B0E12"/>
    <rect x="802.0" y="590.4" width="68" height="132" rx="22" fill="#0B0E12"/>
    <rect x="402.0" y="216.0" width="396" height="520" rx="122.76"
          fill="url(#body-toyota-camry-hybrid-3)" stroke="url(#body-toyota-camry-hybrid-3)" stroke-width="18"/>
    <rect x="428.0" y="260.0" width="344" height="424" rx="102.96000000000001"
          fill="none" stroke="#000000" stroke-opacity="0.22" stroke-width="4"/>
    <path d="M476.0 367.20000000000005 Q600 321.20000000000005 724.0 367.20000000000005
             L702.0 433.20000000000005 Q600 401.20000000000005 498.0 433.20000000000005 Z"
          fill="url(#glass-toyota-camry-hybrid-3)" stroke="url(#glass-toyota-camry-hybrid-3)" stroke-width="8" stroke-linejoin="round"/>
    <path d="M498.0 498.0 Q600 530.0 702.0 498.0
             L724.0 564.0 Q600 610.0 476.0 564.0 Z"
          fill="url(#glass-toyota-camry-hybrid-3)" stroke="url(#glass-toyota-camry-hybrid-3)" stroke-width="8" stroke-linejoin="round"/>
    <rect x="520.0" y="469.20000000000005" width="160" height="-7.2000000000000455"
          rx="34" fill="#E8ECF1" fill-opacity="0.55" stroke="#FFFFFF" stroke-opacity="0.12"/>
    <path d="M506.0 507.20000000000005 L694.0 507.20000000000005"
          stroke="#000000" stroke-opacity="0.2" stroke-width="4"/>
    <rect x="362.0" y="381.20000000000005" width="44" height="22" rx="10" fill="#AEB8C4"/>
    <rect x="794.0" y="381.20000000000005" width="44" height="22" rx="10" fill="#AEB8C4"/>
    <rect x="442.0" y="242.0" width="120" height="26" rx="13" fill="#F3F7FB" fill-opacity="0.9"/>
    <rect x="638.0" y="242.0" width="120" height="26" rx="13" fill="#F3F7FB" fill-opacity="0.9"/>
    <rect x="442.0" y="684.0" width="120" height="26" rx="13" fill="#D7F24B" fill-opacity="0.85"/>
    <rect x="638.0" y="684.0" width="120" height="26" rx="13" fill="#D7F24B" fill-opacity="0.85"/>
    <path d="M600 222.0 L600 258.0" stroke="#FFFFFF" stroke-opacity="0.18" stroke-width="6"/>
  </g>
</svg>
