<svg xmlns="http://www.w3.org/2000/svg" viewBox="0 0 1200 750" width="1200" height="750"
     role="img" aria-label="Toyota Innova Crysta front three-quarter illustration">
  <title>Toyota Innova Crysta - front view</title>
  <defs>
    <linearGradient id="body-toyota-innova-crysta-2" x1="0" y1="0" x2="0.25" y2="1">
      <stop offset="0" stop-color="#EAEEF3"/>
      <stop offset="0.45" stop-color="#C7CCD3"/>
      <stop offset="1" stop-color="#949BA6"/>
    </linearGradient>
    <linearGradient id="glass-toyota-innova-crysta-2" x1="0.1" y1="0" x2="0.7" y2="1">
      <stop offset="0" stop-color="#232E3B" stop-opacity="0.95"/>
      <stop offset="0.55" stop-color="#232E3B"/>
      <stop offset="1" stop-color="#EAEEF3" stop-opacity="0.35"/>
    </linearGradient>
    <linearGradient id="rim-toyota-innova-crysta-2" x1="0" y1="0" x2="1" y2="1">
      <stop offset="0" stop-color="#D9DEE6"/>
      <stop offset="0.6" stop-color="#8E97A3"/>
      <stop offset="1" stop-color="#4C545F"/>
    </linearGradient>
    <radialGradient id="bg-toyota-innova-crysta-2" cx="0.5" cy="0.34" r="0.78">
      <stop offset="0" stop-color="#0C1116"/>
      <stop offset="0.55" stop-color="#080B0F"/>
      <stop offset="1" stop-color="#05070A"/>
    </radialGradient>
    <radialGradient id="glow-toyota-innova-crysta-2" cx="0.5" cy="0.5" r="0.5">
      <stop offset="0" stop-color="#9FB4C7" stop-opacity="0.55"/>
      <stop offset="1" stop-color="#9FB4C7" stop-opacity="0"/>
    </radialGradient>
    <filter id="soft-toyota-innova-crysta-2" x="-20%" y="-20%" width="140%" height="140%">
      <feGaussianBlur stdDeviation="18"/>
    </filter>
  </defs>
  <rect width="1200" height="750" fill="url(#bg-toyota-innova-crysta-2)"/>
  <ellipse cx="600" cy="330" rx="560" ry="260" fill="url(#glow-toyota-innova-crysta-2)" opacity="0.5"/>
  <path d="M0 560h1200" stroke="#FFFFFF" stroke-opacity="0.07"/>
  <rect y="560" width="1200" height="190" fill="#FFFFFF" fill-opacity="0.015"/>
  <g stroke="#FFFFFF" stroke-opacity="0.035">
    <path d="M0 612h1200M0 664h1200M0 716h1200"/>
    <path d="M180 560v190M420 560v190M660 560v190M900 560v190"/>
  </g>
  <ellipse cx="600" cy="566" rx="430" ry="26" fill="#000000" opacity="0.55" filter="url(#soft-toyota-innova-crysta-2)"/>
  <g>
    <ellipse cx="600" cy="546" rx="410" ry="58" fill="#000000" fill-opacity="0.38" filter="url(#soft-toyota-innova-crysta-2)"/>

    <rect x="234" y="474" width="84" height="84" rx="38" fill="#0B0E12"/>
    <rect x="882" y="474" width="84" height="84" rx="38" fill="#0B0E12"/>

    <path d="M244 560 Q230 436 254 398
             Q268 268 324 258
             L876 258
             Q932 268 946 398
             Q970 436 956 560 Z"
          fill="url(#body-toyota-innova-crysta-2)" stroke="url(#body-toyota-innova-crysta-2)" stroke-width="24" stroke-linejoin="round"/>

    <path d="M322 274 L374 420
             L826 420 L878 274 Z"
          fill="url(#glass-toyota-innova-crysta-2)" stroke="#949BA6" stroke-width="8" stroke-linejoin="round"/>
    <path d="M330 262 L870 262 L862 280
             L338 280 Z" fill="#EAEEF3" fill-opacity="0.9"/>
    <path d="M374 420 L826 420"
          stroke="#000000" stroke-opacity="0.22" stroke-width="6"/>

    <rect x="256" y="310" width="52" height="26" rx="12" fill="#949BA6"/>
    <rect x="892" y="310" width="52" height="26" rx="12" fill="#949BA6"/>

    <rect x="432" y="462" width="336" height="58" rx="18" fill="#0C1015" fill-opacity="0.95"/>
    <g fill="#C9D2DC" fill-opacity="0.55">
      <rect x="450" y="472" width="300" height="6" rx="3"/>
      <rect x="450" y="488" width="300" height="6" rx="3"/>
      <rect x="450" y="504" width="300" height="6" rx="3"/>
    </g>

    <ellipse cx="330" cy="468" rx="80" ry="40" fill="url(#glow-toyota-innova-crysta-2)"/>
    <ellipse cx="870" cy="468" rx="80" ry="40" fill="url(#glow-toyota-innova-crysta-2)"/>
    <path d="M276 448 L450 440 L450 492 L284 500 Z"
          fill="#F4F8FC"/>
    <path d="M924 448 L750 440 L750 492 L916 500 Z"
          fill="#F4F8FC"/>
    <path d="M284 482 L448 474 L448 492 L284 500 Z"
          fill="#D7F24B" fill-opacity="0.8"/>
    <path d="M916 482 L752 474 L752 492 L916 500 Z"
          fill="#D7F24B" fill-opacity="0.8"/>

    <rect x="496" y="548" width="208" height="40" rx="10" fill="#E9EEF4" fill-opacity="0.9"/>
    <rect x="516" y="558" width="168" height="20" rx="6" fill="#0C1015" fill-opacity="0.75"/>

    <circle cx="386" cy="554" r="26" fill="#0C1015" fill-opacity="0.85"/>
    <circle cx="814" cy="554" r="26" fill="#0C1015" fill-opacity="0.85"/>
    <circle cx="386" cy="554" r="12" fill="#F4F8FC" fill-opacity="0.75"/>
    <circle cx="814" cy="554" r="12" fill="#F4F8FC" fill-opacity="0.75"/>

    <path d="M252 430 Q216 414 202 396" stroke="#949BA6" stroke-width="15"
          stroke-linecap="round" fill="none"/>
    <path d="M948 430 Q984 414 998 396" stroke="#949BA6" stroke-width="15"
          stroke-linecap="round" fill="none"/>
    <path d="M260 464 L268 552 M940 464 L932 552"
          stroke="#000000" stroke-opacity="0.26" stroke-width="6"/>
    <path d="M472 614 h256" stroke="#D7F24B" stroke-opacity="0.75" stroke-width="6"
          stroke-linecap="round"/>
  </g>
</svg>
